<svg xmlns="http://www.w3.org/2000/svg"  viewBox="0 0 100 100" width="100px" height="100px"><circle cx="52" cy="52" r="44" opacity=".35"/><circle cx="50" cy="50" r="44" fill="#f2f2f2"/><path fill="#70bfff" d="M87.5,50c0,20.709-16.791,37.5-37.5,37.5S12.5,70.709,12.5,50S29.291,12.5,50,12.5 S87.5,29.291,87.5,50z"/><path fill="#40396e" d="M50,89c-21.505,0-39-17.495-39-39s17.495-39,39-39s39,17.495,39,39S71.505,89,50,89z M50,14 c-19.851,0-36,16.149-36,36s16.149,36,36,36s36-16.149,36-36S69.851,14,50,14z"/><g><path fill="#f2f2f2" d="M26.662,49.469c13.106-5.766,30.066-12.795,32.408-13.768c6.141-2.546,8.025-2.059,7.086,3.581 c-0.675,4.054-2.621,17.473-4.174,25.826c-0.921,4.954-2.987,5.541-6.234,3.397c-1.562-1.031-9.446-6.246-11.158-7.47 c-1.562-1.116-3.716-2.458-1.014-5.102c0.962-0.941,7.264-6.96,12.174-11.644c0.643-0.615-0.165-1.626-0.907-1.133 c-6.619,4.389-15.795,10.481-16.963,11.274c-1.764,1.198-3.459,1.748-6.501,0.874c-2.299-0.66-4.543-1.447-5.417-1.748 C22.595,52.404,23.394,50.907,26.662,49.469z"/></g></svg>